<svg width="30" height="30" viewBox="0 0 30 30" fill="none" xmlns="http://www.w3.org/2000/svg">
<path d="M15 30C12.9253 30 10.9753 29.6068 9.15 28.8205C7.32474 28.0342 5.73737 26.9671 4.3879 25.6194C3.03842 24.2717 1.96948 22.6859 1.18105 20.862C0.392633 19.0381 -0.00105053 17.0907 2.10526e-06 15.0197C2.10526e-06 12.9876 0.391581 11.066 1.17474 9.25467C1.9579 7.44336 3.02369 5.85072 4.37211 4.47674C5.72053 3.10276 7.29948 2.01314 9.10895 1.20788C10.9184 0.402628 12.8468 0 14.8942 0C15.2963 0 15.7079 0.0157691 16.1289 0.0473065C16.55 0.0809465 16.9721 0.132983 17.3953 0.203417C17.3216 1.38607 17.4663 2.45729 17.8295 3.41708C18.1947 4.37792 18.7316 5.19632 19.44 5.87227C20.1484 6.54823 21.0079 7.05283 22.0184 7.38607C23.0289 7.72037 24.1542 7.86229 25.3942 7.81183C25.0742 9.36242 25.4005 10.7564 26.3732 11.9937C27.3458 13.231 28.5489 13.9464 29.9826 14.1398L29.9953 14.3275C29.9984 14.3853 30 14.4473 30 14.5135C30 16.6339 29.6042 18.6313 28.8126 20.5057C28.0211 22.3811 26.9468 24.0237 25.59 25.4334C24.2321 26.8421 22.6447 27.9553 20.8279 28.7732C19.0089 29.5911 17.0663 30 15 30ZM12.6474 11.5632C13.2137 11.5632 13.6968 11.3582 14.0968 10.9482C14.4968 10.5382 14.6968 10.0505 14.6968 9.48489C14.6968 8.91932 14.4958 8.43679 14.0937 8.03732C13.6916 7.63785 13.2042 7.43811 12.6316 7.43811C12.0747 7.43811 11.5916 7.6389 11.1821 8.04047C10.7726 8.44205 10.5674 8.92878 10.5663 9.50066C10.5663 10.0568 10.7716 10.5393 11.1821 10.9482C11.5926 11.3572 12.0805 11.5622 12.6458 11.5632M9.4879 19.4476C10.0553 19.4476 10.5389 19.2426 10.9389 18.8326C11.3389 18.4226 11.5389 17.9354 11.5389 17.3708C11.5389 16.8063 11.3379 16.3233 10.9358 15.9217C10.5337 15.5201 10.0463 15.3204 9.47369 15.3225C8.91684 15.3225 8.43369 15.5233 8.02421 15.9248C7.61474 16.3264 7.40947 16.8131 7.40842 17.385C7.40842 17.9411 7.61369 18.4237 8.02421 18.8326C8.43474 19.2415 8.92316 19.4465 9.48948 19.4476M19.7526 21.0244C20.1084 21.0244 20.4074 20.8983 20.6495 20.646C20.8916 20.3937 21.0126 20.0904 21.0126 19.7361C21.0126 19.3819 20.8905 19.0828 20.6463 18.8389C20.4011 18.5971 20.0979 18.4762 19.7368 18.4762C19.3905 18.4762 19.0916 18.5987 18.84 18.8436C18.5884 19.0886 18.4621 19.3908 18.4611 19.7503C18.4611 20.0962 18.5874 20.3947 18.84 20.646C19.0926 20.8972 19.3968 21.0234 19.7526 21.0244Z" fill="#34B982"/>
</svg>
